<?xml version="1.0" standalone="no"?>
<!DOCTYPE svg PUBLIC "-//W3C//DTD SVG 20010904//EN"
 "http://www.w3.org/TR/2001/REC-SVG-20010904/DTD/svg10.dtd">
<svg version="1.0" xmlns="http://www.w3.org/2000/svg"
 width="500.000000pt" height="500.000000pt" viewBox="0 0 500.000000 500.000000"
 preserveAspectRatio="xMidYMid meet">
<metadata>
Created by potrace 1.11, written by Peter Selinger 2001-2013
</metadata>
<g transform="translate(0.000000,500.000000) scale(0.100000,-0.100000)"
fill="#000000" stroke="none">
<path d="M0 2500 l0 -2500 2500 0 2500 0 0 2500 0 2500 -2500 0 -2500 0 0
-2500z m2838 2370 c98 -38 188 -103 250 -180 50 -62 69 -74 127 -84 131 -23
279 -140 345 -271 35 -70 35 -70 35 -207 0 -125 2 -138 21 -155 54 -49 117
-158 133 -232 30 -139 4 -254 -82 -364 -24 -31 -27 -40 -17 -52 7 -8 21 -15
31 -15 21 0 99 -24 146 -46 17 -8 37 -14 45 -14 8 0 18 -4 23 -8 6 -5 29 -16
52 -25 45 -18 148 -81 158 -97 6 -10 -8 -40 -49 -102 -17 -26 -17 -26 26 -51
59 -34 168 -158 168 -191 0 -16 -113 -135 -166 -176 l-31 -23 34 -49 c32 -48
42 -78 26 -78 -5 0 -24 -15 -44 -34 -35 -33 -112 -85 -174 -116 -29 -15 -32
-14 -79 19 -29 21 -43 37 -35 39 56 15 209 107 209 125 0 7 -22 24 -49 40 -40
22 -64 28 -123 30 l-73 2 3 -56 c3 -50 1 -60 -24 -86 l-27 -30 -53 20 c-30 11
-54 24 -54 28 0 5 14 15 30 24 19 10 30 23 30 37 0 21 -106 138 -126 138 -5 0
-26 -16 -45 -36 -18 -19 -60 -52 -91 -71 -32 -20 -58 -42 -58 -49 0 -10 -15
-14 -50 -14 -48 0 -50 1 -44 24 8 32 -27 98 -66 126 l-30 22 -34 -30 c-19 -16
-57 -37 -86 -47 -36 -12 -48 -20 -41 -29 5 -6 16 -30 24 -54 14 -41 14 -42 -9
-42 -12 0 -33 -4 -47 -9 -22 -9 -26 -5 -51 49 -14 33 -48 83 -75 112 l-48 52
-55 -56 -54 -56 17 -34 c10 -19 38 -53 63 -76 l45 -42 -39 -20 c-22 -11 -43
-20 -48 -20 -19 0 -88 82 -119 141 -31 61 -32 62 -39 33 -17 -68 -82 -156
-153 -208 l-48 -36 55 -55 c47 -47 53 -57 42 -70 -33 -40 -47 -38 -109 14
-120 100 -272 151 -449 151 -135 0 -172 -8 -457 -101 -351 -114 -573 -159
-783 -161 -88 -1 -122 14 -122 53 0 37 41 50 192 59 79 5 196 21 263 35 127
27 255 65 255 75 0 4 -17 14 -37 24 -47 22 -126 76 -176 119 -35 30 -37 35
-27 61 6 16 22 42 36 59 l25 30 -22 15 c-36 25 -129 115 -160 153 -27 35 -28
37 -11 57 9 11 35 43 57 72 22 28 63 67 92 87 57 39 57 38 9 102 -14 19 -26
40 -26 47 0 27 174 121 293 158 31 10 57 20 57 22 0 2 -11 26 -24 52 -56 107
-68 153 -73 272 -9 203 33 316 164 448 l78 78 2 95 c3 215 128 427 302 512 59
28 76 32 151 32 69 0 93 -4 128 -23 47 -25 57 -23 109 26 42 41 130 90 203
115 103 35 109 36 250 33 114 -3 133 -6 208 -36z m-9 -3045 c19 -13 147 -136
285 -272 138 -136 278 -273 312 -304 177 -166 258 -306 235 -408 -20 -90 -74
-140 -169 -157 -51 -9 -59 -17 -77 -82 -26 -86 -80 -129 -180 -141 -48 -6 -51
-8 -73 -56 -38 -79 -67 -99 -167 -113 -47 -7 -50 -9 -55 -42 -21 -126 -134
-166 -281 -101 -59 26 -169 107 -169 123 1 7 16 31 36 52 l34 40 37 -35 c21
-19 42 -39 48 -46 24 -27 90 -63 116 -63 70 0 92 85 41 156 -16 21 -64 73
-108 114 -128 121 -166 220 -84 220 23 0 47 -20 127 -107 188 -206 185 -203
235 -203 66 0 98 28 98 87 0 49 -2 51 -242 282 -66 63 -89 92 -94 117 -13 72
42 85 108 27 68 -62 203 -199 244 -248 66 -81 161 -110 211 -63 51 48 20 104
-133 239 -200 178 -241 219 -251 252 -14 47 -1 67 44 67 33 0 48 -12 187 -154
187 -190 217 -211 302 -211 53 0 67 4 86 23 28 28 30 89 3 145 -10 23 -128
145 -309 319 -526 511 -493 477 -473 492 9 7 17 20 17 29 0 21 11 47 19 47 4
0 22 -11 40 -25z m-1904 -665 c95 -13 206 -54 287 -106 75 -48 188 -152 188
-173 0 -11 -31 -70 -47 -90 -2 -3 -23 15 -46 40 -84 90 -173 149 -293 196 -66
25 -77 27 -262 27 -206 2 -211 3 -212 52 0 46 51 60 220 62 52 1 127 -3 165
-8z"/>
<path d="M2530 4799 c-104 -11 -189 -46 -259 -105 -49 -43 -64 -68 -56 -94 8
-27 20 -25 53 6 52 50 121 77 192 76 85 0 131 -21 197 -89 l54 -56 30 31 c34
35 71 47 172 57 37 4 67 11 67 15 0 18 -87 85 -144 110 -113 51 -181 61 -306
49z"/>
<path d="M1820 4624 c-89 -50 -150 -129 -189 -243 -24 -69 -43 -191 -32 -203
3 -4 49 7 100 24 101 33 111 41 294 225 111 111 118 120 106 146 -6 13 -29 36
-52 50 -35 23 -52 27 -112 27 -57 0 -79 -5 -115 -26z"/>
<path d="M2398 4558 c-42 -11 -88 -49 -88 -73 0 -44 178 -73 254 -41 43 18 50
30 35 58 -19 35 -32 45 -75 57 -46 13 -75 13 -126 -1z"/>
<path d="M3081 4487 c7 -15 33 -40 59 -57 123 -79 217 -205 270 -363 13 -37
28 -66 34 -64 6 2 20 19 31 38 32 54 28 167 -9 240 -60 121 -196 213 -331 226
l-66 6 12 -26z"/>
<path d="M2850 4471 c-5 -11 -10 -24 -10 -30 0 -19 -69 -161 -99 -204 -41 -60
-99 -118 -148 -150 -115 -74 -282 -56 -434 47 l-54 36 -4 -27 c-3 -30 14 -148
30 -198 7 -25 22 -36 79 -63 106 -49 181 -65 275 -59 139 10 239 60 355 177
87 87 139 177 164 289 16 69 16 74 -2 114 -14 32 -30 48 -64 65 -55 27 -74 28
-88 3z"/>
<path d="M2136 4425 c-9 -14 -19 -44 -22 -68 -6 -43 -5 -44 47 -91 157 -137
295 -160 402 -65 45 39 133 166 123 176 -3 3 -26 -4 -52 -16 -80 -38 -174 -54
-236 -42 -60 13 -138 54 -187 100 -40 38 -54 39 -75 6z"/>
<path d="M3105 4248 c-100 -318 -336 -521 -620 -535 -73 -4 -107 0 -182 20
l-93 24 23 -41 c35 -66 123 -147 247 -228 228 -149 362 -189 513 -154 38 9 79
16 93 16 84 0 186 96 230 217 26 71 29 90 29 208 0 142 -15 206 -80 350 -29
64 -115 175 -135 175 -5 0 -16 -24 -25 -52z"/>
<path d="M1937 4221 c-57 -59 -124 -166 -149 -240 -19 -55 -23 -86 -22 -186 0
-142 17 -211 91 -364 l48 -101 50 0 c58 0 187 -23 254 -46 130 -43 248 -127
310 -221 17 -25 31 -41 31 -34 0 34 95 144 162 188 l38 26 -87 29 c-413 139
-642 441 -670 886 -3 56 -9 102 -12 102 -3 0 -23 -18 -44 -39z"/>
<path d="M1615 4049 c-143 -72 -221 -168 -254 -311 -27 -117 0 -294 61 -399
l27 -46 78 14 c43 7 115 16 161 20 54 4 82 10 79 17 -92 234 -102 279 -101
461 0 134 4 167 30 258 7 24 -11 21 -81 -14z"/>
<path d="M3478 3890 c-24 -18 -26 -25 -31 -152 -5 -144 -23 -218 -77 -314
l-29 -52 31 -6 c17 -3 50 -6 73 -6 38 0 50 6 99 51 32 29 66 73 82 104 23 49
26 63 22 137 -5 96 -27 152 -87 217 -43 47 -49 48 -83 21z"/>
<path d="M3165 3253 c-28 -5 -25 -7 35 -29 35 -14 71 -31 80 -39 14 -12 19
-10 41 18 46 59 48 57 -43 56 -46 -1 -96 -4 -113 -6z"/>
<path d="M2935 3216 c-58 -19 -129 -49 -143 -61 -2 -2 8 -27 22 -57 14 -29 30
-86 37 -126 l12 -74 28 30 c54 58 108 155 135 242 25 81 21 83 -91 46z"/>
<path d="M1750 3224 c0 -3 12 -20 27 -39 l27 -33 51 29 c28 16 60 29 71 29 10
0 26 5 34 10 10 7 -21 10 -97 10 -62 0 -113 -2 -113 -6z"/>
<path d="M3636 3181 c80 -58 97 -79 117 -146 17 -59 47 -74 107 -56 43 13 106
67 112 94 4 23 -51 54 -172 96 -71 25 -205 61 -227 61 -3 0 25 -22 63 -49z"/>
<path d="M2066 3193 c14 -63 39 -130 65 -175 36 -61 92 -137 101 -138 4 0 10
21 13 48 7 50 41 159 57 179 5 7 7 17 3 23 -12 19 -134 67 -218 85 -26 5 -27
4 -21 -22z"/>
<path d="M1435 3185 c-158 -41 -315 -103 -315 -125 0 -22 91 -99 125 -106 41
-7 95 3 95 19 0 67 53 140 144 199 33 21 55 38 50 38 -5 -1 -49 -12 -99 -25z"/>
<path d="M3386 3141 c-51 -68 -48 -94 11 -123 26 -13 72 -47 102 -75 30 -29
58 -53 61 -53 3 0 27 13 53 30 39 25 47 35 47 60 0 37 -20 78 -52 105 -35 29
-160 105 -174 105 -7 0 -28 -22 -48 -49z"/>
<path d="M1589 3125 c-115 -69 -149 -106 -149 -162 0 -24 8 -38 33 -56 59 -45
71 -44 125 11 26 26 71 59 99 73 46 21 52 28 53 55 0 31 -49 106 -76 118 -7 2
-45 -15 -85 -39z"/>
<path d="M3115 3138 c-2 -7 -13 -37 -24 -66 l-19 -52 43 -46 43 -46 31 23 c83
61 83 137 1 179 -45 23 -69 25 -75 8z"/>
<path d="M1915 3109 c-50 -24 -65 -44 -65 -86 0 -27 9 -43 46 -79 l46 -44 42
47 c22 26 41 49 41 52 0 3 -9 34 -20 68 -22 70 -29 73 -90 42z"/>
<path d="M2686 3060 c-64 -76 -71 -103 -70 -250 1 -74 6 -146 11 -159 l10 -24
26 34 c76 101 110 230 87 338 -7 33 -18 68 -25 77 -10 14 -14 13 -39 -16z"/>
<path d="M2364 3024 c-30 -76 -26 -182 10 -270 15 -40 43 -89 61 -110 l33 -37
11 52 c31 145 4 305 -64 379 l-32 35 -19 -49z"/>
<path d="M3295 2917 c-17 -19 -44 -43 -62 -55 -28 -20 -31 -26 -26 -61 3 -22
1 -53 -5 -70 -6 -17 -7 -31 -2 -31 11 0 96 -83 102 -100 12 -38 162 105 174
166 9 47 -21 100 -82 146 -27 21 -54 38 -59 38 -6 0 -24 -15 -40 -33z"/>
<path d="M3020 2931 c0 -17 -128 -147 -164 -166 -19 -11 -37 -24 -40 -31 -2
-6 19 -34 48 -63 l52 -51 56 22 c103 42 156 110 135 172 -9 29 -74 126 -83
126 -2 0 -4 -4 -4 -9z"/>
<path d="M1744 2917 c-62 -35 -124 -112 -124 -152 0 -45 68 -130 147 -184 31
-21 32 -21 38 -2 3 11 25 37 49 58 l42 38 -2 73 c-1 73 -1 73 -42 103 -22 16
-47 40 -56 54 -19 28 -23 29 -52 12z"/>
<path d="M3937 2913 c-4 -6 7 -23 23 -38 55 -52 52 -139 -5 -200 -40 -42 -41
-45 -17 -45 33 0 119 59 162 110 l43 51 -34 35 c-65 67 -156 113 -172 87z"/>
<path d="M2065 2902 c-26 -18 -75 -108 -75 -136 0 -57 50 -110 140 -149 l58
-25 51 53 c55 56 57 73 13 92 -32 15 -127 106 -150 145 -17 30 -21 32 -37 20z"/>
<path d="M1090 2879 c-43 -26 -120 -99 -120 -114 0 -20 73 -97 119 -127 25
-15 56 -28 70 -28 l25 0 -26 28 c-73 77 -76 165 -9 226 42 38 -2 49 -59 15z"/>
<path d="M3706 2865 c-21 -19 -58 -42 -82 -51 -24 -9 -44 -22 -44 -29 0 -7 -3
-26 -6 -42 -5 -25 0 -34 44 -71 l50 -42 56 20 c72 24 143 67 162 96 28 41 15
65 -61 111 -38 24 -72 43 -75 43 -3 -1 -22 -16 -44 -35z"/>
<path d="M1300 2849 c-104 -57 -123 -94 -72 -140 38 -35 68 -53 135 -77 70
-26 68 -26 93 -4 10 10 33 28 50 40 31 21 32 23 20 63 -10 34 -21 45 -67 70
-29 17 -65 41 -79 54 l-25 24 -55 -30z"/>
<path d="M1512 2548 c-85 -84 -84 -92 23 -147 59 -31 60 -31 115 -16 30 7 72
17 93 20 29 5 37 10 33 21 -3 9 -6 21 -6 28 0 7 -19 23 -42 36 -24 13 -66 46
-94 72 -28 26 -53 48 -56 48 -3 0 -33 -28 -66 -62z"/>
<path d="M2275 2553 c-26 -32 -59 -83 -72 -113 -13 -30 -28 -62 -32 -70 -6
-11 3 -20 38 -36 l46 -21 40 25 c48 31 110 94 130 132 14 26 12 29 -41 84 -30
31 -56 56 -58 56 -2 0 -25 -26 -51 -57z"/>
<path d="M1905 2558 c-32 -38 -36 -48 -33 -93 l3 -50 70 -8 c39 -4 85 -11 103
-16 23 -7 32 -6 32 2 0 7 11 37 23 68 l23 56 -47 17 c-27 9 -61 28 -77 41 -41
34 -55 32 -97 -17z"/>
<path d="M1170 2502 c-30 -15 -55 -34 -55 -42 0 -19 122 -93 205 -125 61 -23
69 -24 100 -11 l34 14 -31 16 c-61 31 -90 105 -63 157 10 18 7 19 -62 19 -60
0 -83 -5 -128 -28z"/>
</g>
</svg>
